<svg width="24" height="25" viewBox="0 0 24 25" fill="none" xmlns="http://www.w3.org/2000/svg">
<path d="M4 19.5395V10.5395C4 10.2228 4.071 9.92279 4.213 9.63946C4.355 9.35613 4.55067 9.12279 4.8 8.93946L10.8 4.43946C11.15 4.17279 11.55 4.03946 12 4.03946C12.45 4.03946 12.85 4.17279 13.2 4.43946L19.2 8.93946C19.45 9.12279 19.646 9.35613 19.788 9.63946C19.93 9.92279 20.0007 10.2228 20 10.5395V19.5395C20 20.0895 19.804 20.5605 19.412 20.9525C19.02 21.3445 18.5493 21.5401 18 21.5395H15C14.7167 21.5395 14.4793 21.4435 14.288 21.2515C14.0967 21.0595 14.0007 20.8221 14 20.5395V15.5395C14 15.2561 13.904 15.0188 13.712 14.8275C13.52 14.6361 13.2827 14.5401 13 14.5395H11C10.7167 14.5395 10.4793 14.6355 10.288 14.8275C10.0967 15.0195 10.0007 15.2568 10 15.5395V20.5395C10 20.8228 9.904 21.0605 9.712 21.2525C9.52 21.4445 9.28267 21.5401 9 21.5395H6C5.45 21.5395 4.97933 21.3438 4.588 20.9525C4.19667 20.5611 4.00067 20.0901 4 19.5395Z" fill="black"/>
</svg>
