<svg width="25" height="25" viewBox="0 0 25 25" fill="none" xmlns="http://www.w3.org/2000/svg">
<path d="M20.0341 5.44945C19.1171 4.52356 18.0251 3.78942 16.8216 3.28981C15.6181 2.79021 14.3271 2.53514 13.0241 2.53945C7.56406 2.53945 3.11406 6.98945 3.11406 12.4495C3.11406 14.1995 3.57406 15.8995 4.43406 17.3995L3.03406 22.5395L8.28406 21.1595C9.73406 21.9495 11.3641 22.3695 13.0241 22.3695C18.4841 22.3695 22.9341 17.9195 22.9341 12.4595C22.9341 9.80945 21.9041 7.31945 20.0341 5.44945ZM13.0241 20.6895C11.5441 20.6895 10.0941 20.2895 8.82406 19.5395L8.52406 19.3595L5.40406 20.1795L6.23406 17.1395L6.03406 16.8295C5.21161 15.5165 4.77498 13.9987 4.77406 12.4495C4.77406 7.90945 8.47406 4.20945 13.0141 4.20945C15.2141 4.20945 17.2841 5.06945 18.8341 6.62945C19.6017 7.39332 20.21 8.30199 20.6237 9.30278C21.0374 10.3036 21.2483 11.3765 21.2441 12.4595C21.2641 16.9995 17.5641 20.6895 13.0241 20.6895ZM17.5441 14.5295C17.2941 14.4095 16.0741 13.8095 15.8541 13.7195C15.6241 13.6395 15.4641 13.5995 15.2941 13.8395C15.1241 14.0895 14.6541 14.6495 14.5141 14.8095C14.3741 14.9795 14.2241 14.9995 13.9741 14.8695C13.7241 14.7495 12.9241 14.4795 11.9841 13.6395C11.2441 12.9795 10.7541 12.1695 10.6041 11.9195C10.4641 11.6695 10.5841 11.5395 10.7141 11.4095C10.8241 11.2995 10.9641 11.1195 11.0841 10.9795C11.2041 10.8395 11.2541 10.7295 11.3341 10.5695C11.4141 10.3995 11.3741 10.2595 11.3141 10.1395C11.2541 10.0195 10.7541 8.79945 10.5541 8.29945C10.3541 7.81945 10.1441 7.87945 9.99406 7.86945H9.51406C9.34406 7.86945 9.08406 7.92945 8.85406 8.17945C8.63406 8.42945 7.99406 9.02945 7.99406 10.2495C7.99406 11.4695 8.88406 12.6495 9.00406 12.8095C9.12406 12.9795 10.7541 15.4795 13.2341 16.5495C13.8241 16.8095 14.2841 16.9595 14.6441 17.0695C15.2341 17.2595 15.7741 17.2295 16.2041 17.1695C16.6841 17.0995 17.6741 16.5695 17.8741 15.9895C18.0841 15.4095 18.0841 14.9195 18.0141 14.8095C17.9441 14.6995 17.7941 14.6495 17.5441 14.5295Z" fill="black"/>
</svg>
